<?xml version="1.0" encoding="UTF-8"?>
<svg id="Layer_1" data-name="Layer 1" xmlns="http://www.w3.org/2000/svg" viewBox="0 0 30 30">
  <defs>
    <style>
      .cls-1 {
        stroke-width: 0px;
      }
    </style>
  </defs>
  <path class="cls-1" d="M19.72,25.99c-.23-.15-.66-.33-.97-.63-3.11-3.07-6.19-6.17-9.29-9.25-.78-.78-.75-1.5.02-2.26,3.07-3.05,6.13-6.12,9.19-9.18.57-.57,1.21-.96,1.97-.36.76.61.46,1.31.1,2.02-1.28,2.52-2.51,5.07-3.83,7.57-.42.8-.38,1.44.02,2.21,1.33,2.55,2.6,5.12,3.88,7.69.56,1.12.13,2.13-1.1,2.2Z"/>
</svg>